<svg xmlns="http://www.w3.org/2000/svg" width="76.543" height="35.928" viewBox="0 0 76.543 35.928"><defs><style>.a{fill:#efaf06;}.b{fill:#4a4a4a;}</style></defs><g transform="translate(-823.795 -1.607)"><g transform="translate(823.795 2.973)"><path class="a" d="M834.488,13.493h-8.835V44.787h8.835v1.634H823.795V11.859h10.694Z" transform="translate(-823.795 -11.859)"/></g><g transform="translate(831.444 10.189)"><path class="b" d="M883.61,71.807a2.076,2.076,0,0,0,1.384.477,2.448,2.448,0,0,0,1.079-.222,3.507,3.507,0,0,0,.9-.65l.982.872a4.049,4.049,0,0,1-1.252,1,3.757,3.757,0,0,1-1.736.374,3.9,3.9,0,0,1-1.474-.277,3.537,3.537,0,0,1-1.986-1.972,4.018,4.018,0,0,1-.291-1.557,4.133,4.133,0,0,1,.263-1.481,3.715,3.715,0,0,1,.74-1.211,3.572,3.572,0,0,1,1.128-.823,3.354,3.354,0,0,1,1.439-.3,3.471,3.471,0,0,1,1.529.318,3.15,3.15,0,0,1,1.093.858,3.722,3.722,0,0,1,.657,1.259,5.1,5.1,0,0,1,.221,1.508q0,.111-.007.221c0,.074-.012.152-.021.235H882.89A2.2,2.2,0,0,0,883.61,71.807Zm3.016-2.484a2.862,2.862,0,0,0-.18-.754,1.934,1.934,0,0,0-.374-.609,1.779,1.779,0,0,0-.56-.408,1.728,1.728,0,0,0-.74-.152,1.687,1.687,0,0,0-1.28.533,2.4,2.4,0,0,0-.616,1.391Z" transform="translate(-881.216 -66.03)"/><path class="b" d="M949.5,73.274a3.622,3.622,0,0,1-1.757.38,3.784,3.784,0,0,1-1.509-.3,3.721,3.721,0,0,1-1.2-.817,3.778,3.778,0,0,1-1.081-2.677,3.843,3.843,0,0,1,1.081-2.7,3.755,3.755,0,0,1,2.724-1.135,3.806,3.806,0,0,1,1.723.346,4.076,4.076,0,0,1,1.2.913L949.64,68.41a3.88,3.88,0,0,0-.823-.657,2.087,2.087,0,0,0-1.072-.256,1.917,1.917,0,0,0-.844.187,2.047,2.047,0,0,0-.664.505,2.414,2.414,0,0,0-.436.74,2.545,2.545,0,0,0-.159.906,2.642,2.642,0,0,0,.159.927,2.259,2.259,0,0,0,.45.747,2.162,2.162,0,0,0,.692.505,2.228,2.228,0,0,0,1.93-.069,4.02,4.02,0,0,0,.851-.657l1.01,1A4.6,4.6,0,0,1,949.5,73.274Z" transform="translate(-935.596 -66.03)"/><path class="b" d="M1009.2,71.316a3.794,3.794,0,0,1-2.055,2.034,4.158,4.158,0,0,1-3.106.007,3.748,3.748,0,0,1-2.041-2.02,3.874,3.874,0,0,1,.007-2.961,3.822,3.822,0,0,1,.816-1.218,3.874,3.874,0,0,1,1.232-.823,3.924,3.924,0,0,1,1.557-.3,4,4,0,0,1,1.557.3,3.758,3.758,0,0,1,2.331,3.508A3.71,3.71,0,0,1,1009.2,71.316Zm-1.556-2.366a2.379,2.379,0,0,0-.461-.754,2.158,2.158,0,0,0-.7-.512,2.164,2.164,0,0,0-2.5.505,2.188,2.188,0,0,0-.44.74,2.672,2.672,0,0,0-.151.906,2.577,2.577,0,0,0,.165.92,2.277,2.277,0,0,0,.461.754,2.209,2.209,0,0,0,.7.505,2.1,2.1,0,0,0,.887.187,2.163,2.163,0,0,0,.914-.187,2.127,2.127,0,0,0,.694-.505,2.184,2.184,0,0,0,.44-.74,2.669,2.669,0,0,0,.151-.906A2.523,2.523,0,0,0,1007.643,68.95Z" transform="translate(-985.655 -66.03)"/><path class="b" d="M1074.648,73.488h-1.688V66.182h1.688v1.146a4.078,4.078,0,0,1,.393-.5,2.566,2.566,0,0,1,.5-.412,2.526,2.526,0,0,1,.621-.286,2.585,2.585,0,0,1,.766-.1,2.431,2.431,0,0,1,1.918.761,2.971,2.971,0,0,1,.676,2.048v4.649h-1.688V69.347a1.941,1.941,0,0,0-.4-1.318,1.441,1.441,0,0,0-1.145-.463,1.553,1.553,0,0,0-1.179.476,1.856,1.856,0,0,0-.453,1.332Z" transform="translate(-1047.417 -66.03)"/><path class="b" d="M1135.832,67.173h1.757l-2.989,7.361h-1.508l-3-7.361h1.8l1.965,5.369Z" transform="translate(-1096.937 -67.021)"/><path class="b" d="M1193.351,71.807a2.076,2.076,0,0,0,1.384.477,2.448,2.448,0,0,0,1.079-.222,3.51,3.51,0,0,0,.9-.65l.983.872a4.049,4.049,0,0,1-1.252,1,3.758,3.758,0,0,1-1.736.374,3.9,3.9,0,0,1-1.474-.277,3.537,3.537,0,0,1-1.986-1.972,4.019,4.019,0,0,1-.291-1.557,4.134,4.134,0,0,1,.263-1.481,3.717,3.717,0,0,1,.74-1.211,3.575,3.575,0,0,1,1.128-.823,3.355,3.355,0,0,1,1.439-.3,3.47,3.47,0,0,1,1.529.318,3.148,3.148,0,0,1,1.093.858,3.723,3.723,0,0,1,.657,1.259,5.1,5.1,0,0,1,.222,1.508q0,.111-.007.221c0,.074-.012.152-.021.235h-5.369A2.2,2.2,0,0,0,1193.351,71.807Zm3.016-2.484a2.862,2.862,0,0,0-.18-.754,1.939,1.939,0,0,0-.374-.609,1.782,1.782,0,0,0-.56-.408,1.728,1.728,0,0,0-.74-.152,1.688,1.688,0,0,0-1.28.533,2.4,2.4,0,0,0-.616,1.391Z" transform="translate(-1149.695 -66.03)"/><path class="b" d="M1256.786,73.557H1255.1V66.252h1.688V67.9a3.212,3.212,0,0,1,.983-1.328,2.353,2.353,0,0,1,1.605-.457v1.771h-.1a2.736,2.736,0,0,0-1.01.18,2.113,2.113,0,0,0-.789.54,2.437,2.437,0,0,0-.512.906,4.051,4.051,0,0,0-.18,1.266Z" transform="translate(-1205.292 -66.099)"/><path class="b" d="M1299.134,72.52a1.971,1.971,0,0,1-.574.713,2.571,2.571,0,0,1-.864.429,3.792,3.792,0,0,1-1.066.145,4.918,4.918,0,0,1-1.6-.277,5.117,5.117,0,0,1-1.5-.816l.747-1.135a4.852,4.852,0,0,0,1.211.671,3.4,3.4,0,0,0,1.183.228,1.411,1.411,0,0,0,.837-.215.673.673,0,0,0,.3-.574v-.028a.533.533,0,0,0-.131-.36,1.189,1.189,0,0,0-.36-.27,3.164,3.164,0,0,0-.526-.208l-.616-.187q-.4-.124-.81-.277a2.93,2.93,0,0,1-.733-.394,2,2,0,0,1-.533-.6,1.708,1.708,0,0,1-.208-.879v-.028a2.1,2.1,0,0,1,.2-.927,2.07,2.07,0,0,1,.554-.706,2.469,2.469,0,0,1,.83-.443,3.327,3.327,0,0,1,1.017-.152,4.653,4.653,0,0,1,1.4.221,5.005,5.005,0,0,1,1.287.609l-.664,1.19a5.6,5.6,0,0,0-1.066-.505,3.063,3.063,0,0,0-1-.187,1.212,1.212,0,0,0-.754.207.637.637,0,0,0-.27.526v.028a.476.476,0,0,0,.138.339,1.356,1.356,0,0,0,.367.263,4.108,4.108,0,0,0,.526.221q.3.1.616.2.4.124.8.29a3.4,3.4,0,0,1,.727.408,2.039,2.039,0,0,1,.533.588,1.612,1.612,0,0,1,.208.844v.028A2.293,2.293,0,0,1,1299.134,72.52Z" transform="translate(-1238.605 -66.21)"/><path class="b" d="M1347.7,71.807a2.077,2.077,0,0,0,1.384.477,2.448,2.448,0,0,0,1.079-.222,3.509,3.509,0,0,0,.9-.65l.983.872a4.049,4.049,0,0,1-1.252,1,3.758,3.758,0,0,1-1.736.374,3.9,3.9,0,0,1-1.474-.277,3.536,3.536,0,0,1-1.985-1.972,4.017,4.017,0,0,1-.291-1.557,4.134,4.134,0,0,1,.263-1.481,3.721,3.721,0,0,1,.74-1.211,3.577,3.577,0,0,1,1.128-.823,3.355,3.355,0,0,1,1.439-.3,3.47,3.47,0,0,1,1.529.318,3.148,3.148,0,0,1,1.093.858,3.722,3.722,0,0,1,.657,1.259,5.1,5.1,0,0,1,.221,1.508q0,.111-.007.221c0,.074-.012.152-.021.235h-5.369A2.2,2.2,0,0,0,1347.7,71.807Zm3.016-2.484a2.858,2.858,0,0,0-.18-.754,1.934,1.934,0,0,0-.373-.609,1.779,1.779,0,0,0-.56-.408,1.73,1.73,0,0,0-.74-.152,1.688,1.688,0,0,0-1.28.533,2.406,2.406,0,0,0-.615,1.391Z" transform="translate(-1283.488 -66.03)"/></g><g transform="translate(831.454 21.149)"><path class="b" d="M886.457,156.786v-1.208a4.673,4.673,0,0,1-.413.511,2.822,2.822,0,0,1-.505.43,2.346,2.346,0,0,1-.622.29,2.6,2.6,0,0,1-.761.1,2.765,2.765,0,0,1-1.057-.209,2.817,2.817,0,0,1-.918-.61,2.975,2.975,0,0,1-.651-.982,3.719,3.719,0,0,1,0-2.649,2.978,2.978,0,0,1,.651-.982,2.9,2.9,0,0,1,.918-.616,2.7,2.7,0,0,1,1.057-.215,2.661,2.661,0,0,1,.767.1,2.582,2.582,0,0,1,.627.279,2.71,2.71,0,0,1,.505.407,3.657,3.657,0,0,1,.4.488V148.3h.894v8.481Zm-.145-3.957a2.192,2.192,0,0,0-.488-.728,2.286,2.286,0,0,0-.7-.468,2.021,2.021,0,0,0-.807-.168,2.169,2.169,0,0,0-.825.156,1.932,1.932,0,0,0-.668.451,2.155,2.155,0,0,0-.453.728,2.676,2.676,0,0,0-.169.977,2.6,2.6,0,0,0,.169.96,2.251,2.251,0,0,0,.459.734,1.982,1.982,0,0,0,.674.468,2.07,2.07,0,0,0,.813.162,2.021,2.021,0,0,0,.807-.167,2.285,2.285,0,0,0,.7-.468,2.177,2.177,0,0,0,.488-.734,2.466,2.466,0,0,0,.18-.954A2.422,2.422,0,0,0,886.312,152.829Z" transform="translate(-881.287 -148.305)"/><path class="b" d="M940.425,150.6v-.988h1.022v.988Zm.058,7.319v-6.007h.895v6.007Z" transform="translate(-932.547 -149.438)"/><path class="b" d="M964.813,172.289a2.407,2.407,0,0,1-.616.912,2.635,2.635,0,0,1-.964.552,4.014,4.014,0,0,1-1.26.186,4.909,4.909,0,0,1-1.441-.209,4.631,4.631,0,0,1-1.29-.627l.407-.7a4.34,4.34,0,0,0,1.092.569,3.7,3.7,0,0,0,1.22.2,2.272,2.272,0,0,0,1.592-.54,2.054,2.054,0,0,0,.593-1.6v-.709a3.8,3.8,0,0,1-.964.895,2.5,2.5,0,0,1-1.394.372,2.942,2.942,0,0,1-1.052-.192,2.725,2.725,0,0,1-1.534-1.446,2.83,2.83,0,0,1-.238-1.185,2.87,2.87,0,0,1,.238-1.191,2.732,2.732,0,0,1,.633-.895,2.8,2.8,0,0,1,.906-.563,2.947,2.947,0,0,1,1.818-.1,2.8,2.8,0,0,1,.639.261,2.7,2.7,0,0,1,.517.383,3.923,3.923,0,0,1,.418.465V166.05h.895v4.961A3.479,3.479,0,0,1,964.813,172.289Zm-.831-4.374a2.039,2.039,0,0,0-.494-.645,2.247,2.247,0,0,0-.7-.412,2.371,2.371,0,0,0-.825-.145,2.312,2.312,0,0,0-.807.139,1.933,1.933,0,0,0-.662.407,1.906,1.906,0,0,0-.447.645,2.11,2.11,0,0,0-.163.842,2.025,2.025,0,0,0,.622,1.493,1.963,1.963,0,0,0,.662.418,2.2,2.2,0,0,0,.8.145,2.371,2.371,0,0,0,.825-.145,2.242,2.242,0,0,0,.7-.412,2.031,2.031,0,0,0,.494-.645,2,2,0,0,0,0-1.685Z" transform="translate(-948.616 -163.575)"/><path class="b" d="M1018.1,150.6v-.988h1.023v.988Zm.058,7.319v-6.007h.895v6.007Z" transform="translate(-999.876 -149.438)"/><path class="b" d="M1037.084,159.387a.941.941,0,0,0,.279.778,1.144,1.144,0,0,0,.732.221,1.8,1.8,0,0,0,.871-.209v.767a2.007,2.007,0,0,1-.494.192,2.482,2.482,0,0,1-.587.064,2.367,2.367,0,0,1-.674-.093,1.322,1.322,0,0,1-.895-.825,2.126,2.126,0,0,1-.128-.778v-3.625h-.837v-.79h.837v-1.812h.895v1.813h1.906v.79h-1.906Z" transform="translate(-1014.83 -152.614)"/><path class="b" d="M1071.181,167.184a5.423,5.423,0,0,0-.854.32l-.267-.732a5.973,5.973,0,0,1,1.011-.366,4.668,4.668,0,0,1,1.173-.133,2.7,2.7,0,0,1,1.894.61,2.337,2.337,0,0,1,.662,1.807v3.671h-.86v-.906a2.939,2.939,0,0,1-.842.72,2.571,2.571,0,0,1-1.33.314,2.935,2.935,0,0,1-.819-.116,2.232,2.232,0,0,1-.72-.354,1.813,1.813,0,0,1-.511-.587,1.685,1.685,0,0,1-.192-.825,1.835,1.835,0,0,1,.186-.843,1.664,1.664,0,0,1,.529-.61,2.539,2.539,0,0,1,.813-.372,3.971,3.971,0,0,1,1.04-.128,6.41,6.41,0,0,1,1.011.07,7.313,7.313,0,0,1,.837.186V168.7a1.544,1.544,0,0,0-.471-1.226,1.937,1.937,0,0,0-1.319-.412A3.6,3.6,0,0,0,1071.181,167.184Zm-.286,2.469a1.084,1.084,0,0,0-.452.918,1.04,1.04,0,0,0,.121.511,1.181,1.181,0,0,0,.33.378,1.5,1.5,0,0,0,.48.238,1.993,1.993,0,0,0,.573.081,2.449,2.449,0,0,0,.781-.122,2.079,2.079,0,0,0,.637-.337,1.591,1.591,0,0,0,.428-.511,1.384,1.384,0,0,0,.156-.656v-.581q-.336-.093-.77-.174a5.429,5.429,0,0,0-.99-.081A2.141,2.141,0,0,0,1070.9,169.653Z" transform="translate(-1044.45 -163.879)"/><path class="b" d="M1122.473,156.786V148.3h.895v8.481Z" transform="translate(-1090.344 -148.305)"/></g><g transform="translate(837.187 1.607)"><path class="b" d="M927.88,5a1.9,1.9,0,0,1-.449.654,2.123,2.123,0,0,1-.692.434,2.388,2.388,0,0,1-.883.158h-1.531V2.136h1.531a2.429,2.429,0,0,1,.883.155,2.085,2.085,0,0,1,.692.431,1.911,1.911,0,0,1,.449.651,2.153,2.153,0,0,1,0,1.622Zm-.7-1.364a1.345,1.345,0,0,0-.288-.445,1.3,1.3,0,0,0-.45-.295,1.57,1.57,0,0,0-.588-.106h-.812v2.8h.812a1.607,1.607,0,0,0,.588-.1,1.287,1.287,0,0,0,.45-.289,1.311,1.311,0,0,0,.288-.442,1.593,1.593,0,0,0,0-1.125Z" transform="translate(-924.324 -2.066)"/><path class="b" d="M961.808,2.787h-2.324V3.843h2.059v.651h-2.059v1.1h2.353v.651h-3.069V2.136h3.039Z" transform="translate(-954.18 -2.066)"/><path class="b" d="M987.168,3.039a.431.431,0,0,0,.15.164,1.2,1.2,0,0,0,.3.141q.191.065.485.135a4.635,4.635,0,0,1,.574.182,1.43,1.43,0,0,1,.415.244.96.96,0,0,1,.25.334,1.092,1.092,0,0,1,.085.449,1.214,1.214,0,0,1-.108.522,1.107,1.107,0,0,1-.3.387,1.317,1.317,0,0,1-.461.24,2.024,2.024,0,0,1-.592.082,2.592,2.592,0,0,1-.909-.161,2.479,2.479,0,0,1-.8-.5l.434-.516a2.518,2.518,0,0,0,.6.4,1.663,1.663,0,0,0,.692.138.9.9,0,0,0,.531-.141.445.445,0,0,0,.2-.381.5.5,0,0,0-.038-.2.4.4,0,0,0-.141-.161,1.185,1.185,0,0,0-.282-.138,4.719,4.719,0,0,0-.468-.135,4.93,4.93,0,0,1-.585-.17,1.486,1.486,0,0,1-.429-.235.933.933,0,0,1-.265-.34,1.168,1.168,0,0,1-.091-.487,1.126,1.126,0,0,1,.1-.49,1.151,1.151,0,0,1,.288-.378,1.281,1.281,0,0,1,.441-.243,1.784,1.784,0,0,1,.563-.085,2.356,2.356,0,0,1,.813.132,2.42,2.42,0,0,1,.678.384l-.387.546a2.526,2.526,0,0,0-.558-.314,1.511,1.511,0,0,0-.557-.109.759.759,0,0,0-.493.144.436.436,0,0,0-.176.349A.494.494,0,0,0,987.168,3.039Z" transform="translate(-978.003 -1.684)"/><path class="b" d="M1019.507,2.787h-2.323V3.843h2.06v.651h-2.06v1.1h2.353v.651h-3.069V2.136h3.039Z" transform="translate(-1004.193 -2.066)"/><path class="b" d="M1048.842,2.136h.716V6.243h-.6l-2.26-2.922V6.243h-.716V2.136h.668l2.2,2.84Z" transform="translate(-1029.772 -2.066)"/><path class="b" d="M1081.4,2.136h.78l-1.707,4.137h-.634l-1.707-4.137h.8l1.238,3.157Z" transform="translate(-1057.644 -2.066)"/><path class="b" d="M1114.686,4.547a2.063,2.063,0,0,1-.446.678,2.141,2.141,0,0,1-1.549.631,2.2,2.2,0,0,1-.869-.167,2.041,2.041,0,0,1-1.115-1.13,2.213,2.213,0,0,1,0-1.643,2.065,2.065,0,0,1,.446-.678,2.139,2.139,0,0,1,1.549-.631,2.2,2.2,0,0,1,.868.167,2.038,2.038,0,0,1,1.115,1.129,2.207,2.207,0,0,1,0,1.643Zm-.7-1.376a1.436,1.436,0,0,0-.287-.466,1.369,1.369,0,0,0-.443-.317,1.419,1.419,0,0,0-1.124,0,1.325,1.325,0,0,0-.437.311,1.423,1.423,0,0,0-.285.463,1.609,1.609,0,0,0,0,1.132,1.432,1.432,0,0,0,.287.467,1.366,1.366,0,0,0,.443.317,1.42,1.42,0,0,0,1.124,0,1.326,1.326,0,0,0,.437-.311,1.427,1.427,0,0,0,.285-.463,1.613,1.613,0,0,0,0-1.132Z" transform="translate(-1085.742 -1.607)"/><path class="b" d="M1149.354,2.136h.716V5.592h2.159v.651h-2.875Z" transform="translate(-1119.377 -2.066)"/><path class="b" d="M1172.179,2.136h.78l-1.708,4.137h-.634l-1.708-4.137h.8l1.238,3.157Z" transform="translate(-1136.329 -2.066)"/><path class="b" d="M1205.612,2.136V6.243h-.716V2.136Z" transform="translate(-1167.52 -2.066)"/><path class="b" d="M1222.106,5a1.9,1.9,0,0,1-.449.654,2.123,2.123,0,0,1-.692.434,2.388,2.388,0,0,1-.883.158h-1.531V2.136h1.531a2.429,2.429,0,0,1,.883.155,2.086,2.086,0,0,1,.692.431,1.909,1.909,0,0,1,.449.651,2.154,2.154,0,0,1,0,1.622Zm-.7-1.364a1.346,1.346,0,0,0-.288-.445,1.3,1.3,0,0,0-.45-.295,1.568,1.568,0,0,0-.588-.106h-.812v2.8h.812a1.606,1.606,0,0,0,.588-.1,1.286,1.286,0,0,0,.45-.289,1.312,1.312,0,0,0,.288-.442,1.59,1.59,0,0,0,0-1.125Z" transform="translate(-1179.355 -2.066)"/><path class="b" d="M1255.765,4.547a2.057,2.057,0,0,1-.446.678,2.139,2.139,0,0,1-1.549.631,2.2,2.2,0,0,1-.869-.167,2.039,2.039,0,0,1-1.115-1.13,2.209,2.209,0,0,1,0-1.643,2.062,2.062,0,0,1,.446-.678,2.139,2.139,0,0,1,1.549-.631,2.2,2.2,0,0,1,.868.167,2.038,2.038,0,0,1,1.115,1.129,2.207,2.207,0,0,1,0,1.643Zm-.7-1.376a1.441,1.441,0,0,0-.287-.466,1.374,1.374,0,0,0-.443-.317,1.419,1.419,0,0,0-1.124,0,1.324,1.324,0,0,0-.437.311,1.427,1.427,0,0,0-.285.463,1.609,1.609,0,0,0,0,1.132,1.436,1.436,0,0,0,.287.467,1.369,1.369,0,0,0,.443.317,1.42,1.42,0,0,0,1.124,0,1.325,1.325,0,0,0,.437-.311,1.427,1.427,0,0,0,.285-.463,1.613,1.613,0,0,0,0-1.132Z" transform="translate(-1208.027 -1.607)"/><path class="b" d="M1306.7,4.125a1.257,1.257,0,0,1-.353.44,1.571,1.571,0,0,1-.523.267,2.2,2.2,0,0,1-.641.091h-.818v1.32h-.716V2.136h1.62a2.041,2.041,0,0,1,.648.1,1.38,1.38,0,0,1,.493.279,1.231,1.231,0,0,1,.311.434,1.429,1.429,0,0,1,.108.569A1.372,1.372,0,0,1,1306.7,4.125Zm-.845-1.152a1.037,1.037,0,0,0-.648-.185h-.842V4.272h.842a.971.971,0,0,0,.651-.2.673.673,0,0,0,.239-.539A.659.659,0,0,0,1305.85,2.973Z" transform="translate(-1253.115 -2.066)"/><path class="b" d="M1335.839,4.547a2.057,2.057,0,0,1-.446.678,2.14,2.14,0,0,1-1.549.631,2.2,2.2,0,0,1-.868-.167,2.039,2.039,0,0,1-1.115-1.13,2.209,2.209,0,0,1,0-1.643,2.066,2.066,0,0,1,.446-.678,2.14,2.14,0,0,1,1.549-.631,2.2,2.2,0,0,1,.868.167,2.038,2.038,0,0,1,1.115,1.129,2.207,2.207,0,0,1,0,1.643Zm-.7-1.376a1.438,1.438,0,0,0-.287-.466,1.374,1.374,0,0,0-.443-.317,1.419,1.419,0,0,0-1.124,0,1.325,1.325,0,0,0-.437.311,1.425,1.425,0,0,0-.284.463,1.611,1.611,0,0,0,0,1.132,1.435,1.435,0,0,0,.287.467,1.369,1.369,0,0,0,.443.317,1.42,1.42,0,0,0,1.124,0,1.324,1.324,0,0,0,.437-.311,1.429,1.429,0,0,0,.285-.463,1.611,1.611,0,0,0,0-1.132Z" transform="translate(-1277.435 -1.607)"/><path class="b" d="M1373.141,6.243l-1.012-1.432h-.906V6.243h-.716V2.136h1.831a2.088,2.088,0,0,1,.637.091,1.384,1.384,0,0,1,.481.258,1.113,1.113,0,0,1,.3.411,1.35,1.35,0,0,1,.106.543,1.348,1.348,0,0,1-.073.461,1.187,1.187,0,0,1-.2.358,1.212,1.212,0,0,1-.308.264,1.517,1.517,0,0,1-.4.167l1.109,1.555Zm-.235-3.282a1,1,0,0,0-.63-.174h-1.053V4.172h1.059a.943.943,0,0,0,.618-.188.622.622,0,0,0,.23-.507A.613.613,0,0,0,1372.906,2.961Z" transform="translate(-1311.07 -2.066)"/></g></g></svg>